<svg width="512" height="512" viewBox="0 0 512 512" fill="none" xmlns="http://www.w3.org/2000/svg">
<path d="M38.7079 419.064L61.2875 458.065C65.9794 466.276 72.7239 472.727 80.6415 477.419L161.283 337.836H0C0 346.927 2.34593 356.017 7.0378 364.228L38.7079 419.064Z" fill="#F2E9E4"/>
<path d="M256 173.621L175.359 34.0378C167.441 38.7297 160.696 45.181 156.005 53.3917L7.0378 311.444C2.43222 319.478 0.00613205 328.576 0 337.836H161.283L256 173.621Z" fill="#C9ADA7"/>
<path d="M431.359 477.419C439.276 472.727 446.021 466.276 450.712 458.065L460.096 441.937L504.962 364.228C509.654 356.017 512 346.927 512 337.836H350.705L385.026 405.282L431.359 477.419Z" fill="#22223B"/>
<path d="M256 173.621L336.641 34.0378C328.724 29.3459 319.633 27 310.25 27H201.75C192.367 27 183.276 29.6392 175.359 34.0378L256 173.621Z" fill="#C9ADA7"/>
<path d="M350.717 337.836H161.283L80.6415 477.419C88.559 482.111 97.6495 484.457 107.033 484.457H404.967C414.351 484.457 423.441 481.818 431.359 477.419L350.717 337.836Z" fill="#F2E9E4"/>
<path d="M430.479 182.418L355.995 53.3917C351.304 45.181 344.559 38.7297 336.641 34.0378L256 173.621L350.717 337.836H511.707C511.707 328.746 509.361 319.655 504.669 311.444L430.479 182.418Z" fill="#22223B"/>
</svg>
